<svg version="1.1" xmlns="http://www.w3.org/2000/svg" xmlns:xlink="http://www.w3.org/1999/xlink" width="105.32671" height="101.56459" viewBox="0,0,105.32671,101.56459"><g transform="translate(-187.40328,-128.88437)"><g data-paper-data="{&quot;isPaintingLayer&quot;:true}" fill-rule="nonzero" stroke-width="0" stroke-linecap="butt" stroke-linejoin="miter" stroke-miterlimit="10" stroke-dasharray="" stroke-dashoffset="0" style="mix-blend-mode: normal"><path d="" fill="#2e9fff" stroke="none"/><g><g stroke="#000000"><path d="M225.78092,212.09114v-27.02703h48.04805v27.02703z" fill="#ff75bd"/><path d="M228.3323,188.66093l16.18438,-23.49346l43.27743,29.81334l-16.18439,23.49346z" fill="#ff0000"/><path d="M236.29143,194.07312v-31.53153h36.03604v31.53153z" fill="#ffc842"/><path d="M209.42134,177.02506l36.17807,-29.28701l16.06061,19.83959l-36.17806,29.28701z" fill="#a3ff42"/><path d="M228.72124,153.27412l14.61113,-17.13998l36.56529,31.17041l-14.61113,17.13998z" fill="#c342ff"/><path d="M236.29143,158.03708l1.50151,-24.02402l48.04805,3.00301l6.006,21.02102z" fill="#42ff62"/><path d="M190.6494,177.5566l1.5015,-43.54354l5.69546,-2.24839c1.53322,1.37116 3.4919,2.27641 5.65355,2.49325c0.351,0.01146 0.69232,0.02375 1.01012,0.05039c8.4884,0.71139 10.66762,-1.57648 17.62277,-1.66666c3.79209,-0.04917 7.59582,0.28862 11.37723,0c1.41047,-0.10765 3.06452,-0.0619 4.2829,-0.72055v41.13101z" fill="#42ffff"/></g><path d="M212.26741,144.52357v-12.01201h42.04204v12.01201z" fill="#0011ff" stroke="none"/><path d="M230.28542,230.10916v-22.52252h37.53754v21.30347c-2.43095,0 -4.86192,0 -7.29287,0c-4.66666,0 -9.33333,0 -14,0c-2.29819,0 -7.88994,-0.04244 -9.29753,0.26751c-0.72423,0.15947 -1.36481,0.54799 -2.00134,0.95154z" fill="#228bbf" stroke="none"/><path d="M207.7629,221.10015l4.5045,-48.04805l25.52553,-10.51051l1.5015,63.06306z" fill="#28a4e0" stroke="none"/><path d="M289.63893,156.05683l-24.05748,15.33346l-26.76612,-41.99479c5.594,0.41633 11.05486,0.4946 16.71475,0.4946c2.43012,0 5.38534,-0.45801 7.77817,-0.07492c1.35708,0.21726 2.62912,0.90214 4,1c0.26328,0.0188 0.13581,-0.73619 0.39499,-0.68628c2.23316,0.43001 4.39754,1.15032 6.57286,1.82441z" fill="#4328e0" stroke="none"/><path d="M258.81395,149.02807h27.02703v79.61748c-3.61544,-1.5282 -7.47316,-0.24228 -7.47316,-0.24228c-1.99523,0.85372 -3.59083,0.48683 -5.83773,0.48683c-4,0 -8,0 -12,0c-0.57205,0 -1.14409,0 -1.71614,0z" fill="#288ae0" stroke="none"/><path d="M249.1767,223.64164v-4.33334l38.66667,-1.66666l-0.66667,6z" fill="#2e9fff" stroke="none"/><path d="M292.38878,139.9373c0.08529,0.10632 0.16815,0.21397 0.24663,0.32391c-1.1296,1.61966 -1.79204,3.58936 -1.79204,5.71377c0,0.44652 0.02927,0.8862 0.08598,1.31723c0.05879,0.44678 0.14707,0.88427 0.26283,1.31044c0.16167,0.76976 0.3229,1.51118 0.43336,2.18094c-0.07605,0.49713 -0.1155,1.00632 -0.1155,1.52472c0,0.20133 0.00595,0.40128 0.01769,0.59966c-0.14515,0.29572 -0.27612,0.59966 -0.39202,0.91092c-0.30344,0.35948 -0.61247,0.71244 -0.62566,1.15609c-0.00833,0.28035 0.03601,0.5505 0.11463,0.8143c-0.07549,0.49533 -0.11463,1.00261 -0.11463,1.51903c0,1.55378 0.35437,3.02479 0.9867,4.33662c-0.54989,1.50485 -1.30733,3.12927 -1.38234,4.10436c-0.56685,7.3691 0.83123,14.3148 1.0623,21.51513c0.22717,7.07854 -1.25007,11.59186 -0.66667,19.37723c0.08808,1.17547 0.28753,2.32442 0.62181,3.40014l-7.75096,13.90615c-0.52864,-0.05782 -0.85079,-0.05782 -0.85079,-0.05782c-2.19579,0 -4.3893,-0.01748 -6.5768,-0.0132c-1.13647,-0.09077 -2.2867,-0.05927 -3.4232,0.0132c-0.01542,0.00098 -0.02727,0.00723 -0.03629,0.01754c-0.23147,0.00405 -0.46285,0.00859 -0.69413,0.01365c-0.77609,-0.57884 -1.45046,-1.35061 -2.37174,-1.60211c-1.90155,-0.51912 -3.92737,-0.37768 -5.89784,-0.42908c-5.54189,-0.14455 -10.94318,1.44092 -16.29539,3.18707c-0.69051,-0.11392 -1.41588,-0.19326 -2.16342,-0.24671z" fill="#2e9fff" stroke="none"/><path d="M255.53009,129.8901c2.43012,0 5.38534,-0.45801 7.77817,-0.07492c1.35708,0.21726 2.62912,0.90214 4,1c0.26328,0.0188 0.13581,-0.73619 0.39499,-0.68628c2.88964,0.55642 5.66411,1.59891 8.49617,2.39836l1.67735,-2.34137l12.82747,5.01944c-0.01749,0.87626 0.02571,1.743 0.25492,2.58262c0.06074,0.22251 0.15183,0.43061 0.26322,0.62922c-0.01629,0.25797 -0.02851,0.52207 -0.03653,0.79242c-0.00609,0.14326 -0.00916,0.2873 -0.00916,0.43206c0,1.67957 0.41407,3.26243 1.1457,4.65207c0.3474,0.69479 0.5556,7.06158 0.28113,8.72189c-0.23197,1.40322 -2.48913,2.27037 -2.48913,3.73369c0,0.25204 0.00446,0.52078 0.01356,0.80362l-64.6947,-25.31532c1.16124,-0.28832 2.20619,-0.41006 2.92561,-0.11575c1.79047,0.73247 6.27349,1.57489 8.13698,1.5198c2.13893,-0.06323 5.43956,0.32463 7.01419,-1.25c0.80629,-0.80629 1.64129,-1.68632 2.39263,-2.62851c3.18544,0.1011 6.37355,0.12697 9.62743,0.12697z" fill="#562eff" stroke="none"/><path d="M190.44117,227.66706l5.6823,-68.83493l19.95215,1.64704l-5.6823,68.83493z" fill="#2ec6ff" stroke="none"/><path d="M290.31435,155.99245l-14.96465,-23.52642l1.52267,-0.04335l14.63133,23.19307z" fill="#95ceff" stroke="#000000"/><path d="M211.01505,211.93635l2,-23l30,34.5z" fill="#95ceff" stroke="none"/><path d="M193.88698,131.03356c1.68519,2.20968 4.26995,3.69642 7.20787,3.91381c0.25871,0.00638 0.51015,0.01381 0.74851,0.0276c5.65831,0.32718 11.34197,-0.00134 17,-0.33334c2.32278,-0.13629 7.21971,0.08939 10.99479,-0.25934l-40.47905,72.62419c-0.40096,-1.20196 -0.77018,-2.40579 -0.66089,-3.45093c0.5376,-5.14105 1.28833,-8.75838 -0.22831,-14.19717c0.09762,-0.34662 0.17704,-0.70088 0.23713,-1.06168c0.08966,-0.53836 0.13632,-1.09126 0.13632,-1.65507c0.60607,-3.62428 0.21121,-7.35636 0.66666,-11c1.20237,-9.61895 -0.65045,-19.16936 -0.33334,-29c0.08184,-2.53711 1.18537,-6.05079 1.09847,-9.12805z" fill="#2e9fff" stroke="none"/><path d="M288.90291,160.39511l-14.70722,-23.16597l1.22096,-0.65416l14.26576,22.61159z" fill="#95ceff" stroke="#000000"/><path d="M289.10291,167.19511l-14.70722,-23.16597l1.22096,-0.65417l14.26576,22.61159z" fill="#95ceff" stroke="#000000"/><path d="M248.66076,224.61722c-0.47578,0.15133 -0.95112,0.305 -1.42606,0.45996c-3.20921,-0.52947 -7.17151,-0.31193 -10.61146,-0.22016c-5.50113,-0.77835 -12.12151,0.03223 -17.08529,0.03309c-3.33595,0 -6.67191,0 -10.00786,0c0,0 -3.57564,0 -6.45069,2.13811c-0.90014,0.14207 -2.11709,0.43027 -3.35023,1.01495l-8.503,-3.32726c-0.19614,-2.13543 -0.92557,-4.3238 -1.29948,-5.74092c-0.88665,-3.36048 0.65807,-5.62325 0.25,-9c-0.24221,-2.00422 -1.68087,-4.48393 -1.47848,-6.41942c0.08363,-0.7998 0.17243,-1.56272 0.25704,-2.30136z" data-paper-data="{&quot;index&quot;:null}" fill="#562eff" stroke="none"/><g stroke="none"><path d="M187.87991,230.44633v-99.76882h5.39291v99.76882z" fill="#60b5f1"/><path d="M287.20381,228.65319v-99.76882h5.39291v99.76882z" fill="#66d6ff"/><path d="M287.671,229.01262l-0.50299,0.00642c-3.92554,-2.57398 -8.80018,-0.94911 -8.80018,-0.94911c-1.99523,0.85372 -3.59083,0.48684 -5.83773,0.48684c-4,0 -8,0 -12,0c-4.66666,0 -9.33333,0 -14,0c-2.29819,0 -7.88994,-0.04244 -9.29753,0.26751c-0.66636,0.14673 -1.26191,0.48737 -1.84864,0.85521l-46.74946,0.59623l-0.77684,-5.75681l99.76477,-0.89897z" data-paper-data="{&quot;index&quot;:null}" fill="#66d6ff"/><path d="M287.21665,134.49304l-99.76477,0.89897l-0.04859,-5.39268l99.76476,-0.89898z" data-paper-data="{&quot;index&quot;:null}" fill="#60b5f1"/><path d="M286.98909,135.02422v-5.83648h5.38752z" fill="#60b5f1"/><path d="M187.92697,230.44896v-6.19003h6.19003z" fill="#60b5f1"/></g><path d="M286.4509,227.08835l0.42855,2.3321l-67.31029,0.77448l1.57145,-2.66544z" fill="#66d6ff" stroke="none"/><g fill="#95ceff" stroke="none"><path d="M204.18294,138.73134c0,-0.47337 0.39614,-0.85711 0.88479,-0.85711c0.48865,0 0.88478,0.38374 0.88478,0.85711c0,0.47337 -0.39613,0.85711 -0.88478,0.85711c-0.48865,0 -0.88479,-0.38374 -0.88479,-0.85711z"/><path d="M204.18294,142.09384c0,-0.50978 0.4266,-0.92304 0.95285,-0.92304c0.52624,0 0.95285,0.41326 0.95285,0.92304c0,0.50978 -0.42661,0.92304 -0.95285,0.92304c-0.52624,0 -0.95285,-0.41326 -0.95285,-0.92304z"/><path d="M204.31906,145.52229c0,-0.50978 0.4266,-0.92305 0.95285,-0.92305c0.52624,0 0.95285,0.41326 0.95285,0.92305c0,0.50978 -0.42661,0.92304 -0.95285,0.92304c-0.52624,0 -0.95285,-0.41326 -0.95285,-0.92304z"/><path d="M204.31906,148.35734c0,-0.47337 0.39613,-0.85711 0.88479,-0.85711c0.48865,0 0.88479,0.38374 0.88479,0.85711c0,0.47337 -0.39613,0.85711 -0.88479,0.85711c-0.48865,0 -0.88479,-0.38374 -0.88479,-0.85711z"/><path d="M204.31906,151.71984c0,-0.50978 0.4266,-0.92304 0.95285,-0.92304c0.52624,0 0.95285,0.41326 0.95285,0.92304c0,0.50978 -0.42661,0.92305 -0.95285,0.92305c-0.52624,0 -0.95285,-0.41326 -0.95285,-0.92305z"/><path d="M204.45519,155.14828c0,-0.50978 0.4266,-0.92304 0.95284,-0.92304c0.52624,0 0.95285,0.41326 0.95285,0.92304c0,0.50978 -0.42661,0.92304 -0.95285,0.92304c-0.52624,0 -0.95284,-0.41326 -0.95284,-0.92304z"/><path d="M201.05216,138.73134c0,-0.47337 0.39613,-0.8571 0.88478,-0.8571c0.48865,0 0.88479,0.38374 0.88479,0.8571c0,0.47337 -0.39614,0.85711 -0.88479,0.85711c-0.48865,0 -0.88478,-0.38374 -0.88478,-0.85711z"/><path d="M201.05216,142.09384c0,-0.50978 0.4266,-0.92304 0.95284,-0.92304c0.52624,0 0.95285,0.41326 0.95285,0.92304c0,0.50978 -0.42661,0.92304 -0.95285,0.92304c-0.52624,0 -0.95284,-0.41326 -0.95284,-0.92304z"/><path d="M201.18828,145.52228c0,-0.50978 0.4266,-0.92304 0.95285,-0.92304c0.52624,0 0.95285,0.41326 0.95285,0.92304c0,0.50978 -0.4266,0.92305 -0.95285,0.92305c-0.52624,0 -0.95285,-0.41326 -0.95285,-0.92305z"/><path d="M201.18828,148.35734c0,-0.47337 0.39614,-0.85711 0.88479,-0.85711c0.48865,0 0.88478,0.38374 0.88478,0.85711c0,0.47337 -0.39613,0.85711 -0.88478,0.85711c-0.48865,0 -0.88479,-0.38374 -0.88479,-0.85711z"/><path d="M201.18828,151.71984c0,-0.50978 0.4266,-0.92304 0.95285,-0.92304c0.52624,0 0.95285,0.41326 0.95285,0.92304c0,0.50978 -0.4266,0.92305 -0.95285,0.92305c-0.52624,0 -0.95285,-0.41326 -0.95285,-0.92305z"/><path d="M201.3244,155.14828c0,-0.50978 0.4266,-0.92305 0.95285,-0.92305c0.52624,0 0.95285,0.41326 0.95285,0.92305c0,0.50978 -0.42661,0.92304 -0.95285,0.92304c-0.52624,0 -0.95285,-0.41326 -0.95285,-0.92304z"/><path d="M210.3084,138.86321c0,-0.47337 0.39614,-0.85711 0.88479,-0.85711c0.48865,0 0.88478,0.38374 0.88478,0.85711c0,0.47337 -0.39613,0.85711 -0.88478,0.85711c-0.48865,0 -0.88479,-0.38374 -0.88479,-0.85711z"/><path d="M210.3084,142.22571c0,-0.50978 0.42661,-0.92304 0.95285,-0.92304c0.52624,0 0.95284,0.41326 0.95284,0.92304c0,0.50978 -0.4266,0.92304 -0.95284,0.92304c-0.52624,0 -0.95285,-0.41326 -0.95285,-0.92304z"/><path d="M210.44452,145.65415c0,-0.50978 0.42661,-0.92304 0.95285,-0.92304c0.52624,0 0.95285,0.41326 0.95285,0.92304c0,0.50978 -0.4266,0.92304 -0.95285,0.92304c-0.52624,0 -0.95285,-0.41326 -0.95285,-0.92304z"/><path d="M210.44452,148.4892c0,-0.47337 0.39614,-0.85711 0.88479,-0.85711c0.48865,0 0.88478,0.38374 0.88478,0.85711c0,0.47337 -0.39613,0.85711 -0.88478,0.85711c-0.48865,0 -0.88479,-0.38374 -0.88479,-0.85711z"/><path d="M210.44452,151.85171c0,-0.50978 0.42661,-0.92304 0.95285,-0.92304c0.52624,0 0.95285,0.41326 0.95285,0.92304c0,0.50978 -0.4266,0.92304 -0.95285,0.92304c-0.52624,0 -0.95285,-0.41326 -0.95285,-0.92304z"/><path d="M210.58064,155.28014c0,-0.50978 0.4266,-0.92304 0.95285,-0.92304c0.52624,0 0.95285,0.41326 0.95285,0.92304c0,0.50978 -0.4266,0.92304 -0.95285,0.92304c-0.52624,0 -0.95285,-0.41326 -0.95285,-0.92304z"/><path d="M207.17761,138.86321c0,-0.47337 0.39613,-0.85711 0.88479,-0.85711c0.48865,0 0.88479,0.38374 0.88479,0.85711c0,0.47337 -0.39613,0.85711 -0.88479,0.85711c-0.48865,0 -0.88479,-0.38374 -0.88479,-0.85711z"/><path d="M207.17761,142.22571c0,-0.50978 0.4266,-0.92304 0.95285,-0.92304c0.52624,0 0.95285,0.41326 0.95285,0.92304c0,0.50978 -0.4266,0.92304 -0.95285,0.92304c-0.52624,0 -0.95285,-0.41326 -0.95285,-0.92304z"/><path d="M207.31373,145.65415c0,-0.50978 0.4266,-0.92304 0.95284,-0.92304c0.52624,0 0.95285,0.41326 0.95285,0.92304c0,0.50978 -0.42661,0.92304 -0.95285,0.92304c-0.52624,0 -0.95284,-0.41326 -0.95284,-0.92304z"/><path d="M207.31373,148.4892c0,-0.47337 0.39613,-0.85711 0.88478,-0.85711c0.48865,0 0.88479,0.38374 0.88479,0.85711c0,0.47337 -0.39614,0.85711 -0.88479,0.85711c-0.48865,0 -0.88478,-0.38374 -0.88478,-0.85711z"/><path d="M207.31373,151.85171c0,-0.50978 0.4266,-0.92304 0.95284,-0.92304c0.52624,0 0.95285,0.41326 0.95285,0.92304c0,0.50978 -0.42661,0.92304 -0.95285,0.92304c-0.52624,0 -0.95284,-0.41326 -0.95284,-0.92304z"/><path d="M207.44985,155.28014c0,-0.50978 0.42661,-0.92304 0.95285,-0.92304c0.52624,0 0.95285,0.41326 0.95285,0.92304c0,0.50978 -0.4266,0.92304 -0.95285,0.92304c-0.52624,0 -0.95285,-0.41326 -0.95285,-0.92304z"/><path d="M198.05749,138.73134c0,-0.47337 0.39613,-0.8571 0.88479,-0.8571c0.48865,0 0.88478,0.38374 0.88478,0.8571c0,0.47337 -0.39613,0.85711 -0.88478,0.85711c-0.48865,0 -0.88479,-0.38374 -0.88479,-0.85711z"/><path d="M198.05749,142.09384c0,-0.50978 0.4266,-0.92304 0.95285,-0.92304c0.52624,0 0.95285,0.41326 0.95285,0.92304c0,0.50978 -0.42661,0.92304 -0.95285,0.92304c-0.52624,0 -0.95285,-0.41326 -0.95285,-0.92304z"/><path d="M198.19361,145.52228c0,-0.50978 0.4266,-0.92304 0.95284,-0.92304c0.52624,0 0.95285,0.41326 0.95285,0.92304c0,0.50978 -0.4266,0.92305 -0.95285,0.92305c-0.52624,0 -0.95284,-0.41326 -0.95284,-0.92305z"/><path d="M198.19361,148.35734c0,-0.47337 0.39613,-0.85711 0.88478,-0.85711c0.48865,0 0.88479,0.38374 0.88479,0.85711c0,0.47337 -0.39614,0.85711 -0.88479,0.85711c-0.48865,0 -0.88478,-0.38374 -0.88478,-0.85711z"/><path d="M198.19361,151.71984c0,-0.50978 0.4266,-0.92304 0.95284,-0.92304c0.52624,0 0.95285,0.41326 0.95285,0.92304c0,0.50978 -0.4266,0.92305 -0.95285,0.92305c-0.52624,0 -0.95284,-0.41326 -0.95284,-0.92305z"/><path d="M198.32973,155.14828c0,-0.50978 0.4266,-0.92305 0.95285,-0.92305c0.52624,0 0.95284,0.41326 0.95284,0.92305c0,0.50978 -0.4266,0.92304 -0.95284,0.92304c-0.52624,0 -0.95285,-0.41326 -0.95285,-0.92304z"/><path d="M194.9267,138.73134c0,-0.47337 0.39613,-0.8571 0.88478,-0.8571c0.48865,0 0.88479,0.38374 0.88479,0.8571c0,0.47337 -0.39614,0.85711 -0.88479,0.85711c-0.48865,0 -0.88478,-0.38374 -0.88478,-0.85711z"/><path d="M194.9267,142.09384c0,-0.50978 0.4266,-0.92304 0.95284,-0.92304c0.52624,0 0.95285,0.41326 0.95285,0.92304c0,0.50978 -0.4266,0.92304 -0.95285,0.92304c-0.52624,0 -0.95284,-0.41326 -0.95284,-0.92304z"/><path d="M195.06282,145.52228c0,-0.50978 0.42661,-0.92304 0.95285,-0.92304c0.52624,0 0.95285,0.41326 0.95285,0.92304c0,0.50978 -0.42661,0.92305 -0.95285,0.92305c-0.52624,0 -0.95285,-0.41326 -0.95285,-0.92305z"/><path d="M195.06282,148.35734c0,-0.47337 0.39614,-0.85711 0.88479,-0.85711c0.48865,0 0.88478,0.38374 0.88478,0.85711c0,0.47337 -0.39613,0.85711 -0.88478,0.85711c-0.48865,0 -0.88479,-0.38374 -0.88479,-0.85711z"/><path d="M195.06282,151.71984c0,-0.50978 0.42661,-0.92304 0.95285,-0.92304c0.52624,0 0.95285,0.41326 0.95285,0.92304c0,0.50978 -0.42661,0.92305 -0.95285,0.92305c-0.52624,0 -0.95285,-0.41326 -0.95285,-0.92305z"/><path d="M195.19895,155.14828c0,-0.50978 0.4266,-0.92305 0.95284,-0.92305c0.52624,0 0.95285,0.41326 0.95285,0.92305c0,0.50978 -0.4266,0.92304 -0.95285,0.92304c-0.52624,0 -0.95284,-0.41326 -0.95284,-0.92304z"/></g></g></g></g></svg>